# xmcd
#
# Track frame offsets:
#	150
#	11755
#	23185
#	40004
#	55530
#	70752
#	89556
#	105420
#	125164
#	141648
#	154912
#	172440
#	190986
#	205471
#	219049
#	232476
#	248968
#	266875
#	281685
#	297776
#
# Disc length: 4112 seconds
#
# Revision: 1
# Processed by: cddbd v1.5.1PL0 Copyright (c) Steve Scherf et al.
# Submitted via: audiograbber 1.83.01
#
DISCID=3f100e14
DTITLE=Demis Roussos - Souvenirs (The Very Best)
DYEAR=2003
DGENRE=
TTITLE0=From Souvenirs To Souvenirs
TTITLE1=Can't Say How Much I Love You
TTITLE2=My Only Fascination
TTITLE3=Lost In Love
TTITLE4=Senora (I Need You)
TTITLE5=Sing An Ode To Love
TTITLE6=We Shall Dance
TTITLE7=Romantica
TTITLE8=Velvet Mornings
TTITLE9=Midnight Is The Time I Need You
TTITLE10=My Friend The Wind
TTITLE11=I'll Be Your Friend
TTITLE12=Rain And Tears
TTITLE13=Action Lady
TTITLE14=Perdoname
TTITLE15=Winter Rains
TTITLE16=My Reason
TTITLE17=Trying To Catch The Wind
TTITLE18=Forever And Ever
TTITLE19=Tell Me Now
EXTD=
EXTT0=
EXTT1=
EXTT2=
EXTT3=
EXTT4=
EXTT5=
EXTT6=
EXTT7=
EXTT8=
EXTT9=
EXTT10=
EXTT11=
EXTT12=
EXTT13=
EXTT14=
EXTT15=
EXTT16=
EXTT17=
EXTT18=
EXTT19=
PLAYORDER=
